<?xml version="1.0" standalone="no"?>
<!DOCTYPE svg PUBLIC "-//W3C//DTD SVG 20010904//EN"
 "http://www.w3.org/TR/2001/REC-SVG-20010904/DTD/svg10.dtd">
<svg version="1.0" xmlns="http://www.w3.org/2000/svg"
 width="260.000000pt" height="260.000000pt" viewBox="0 0 260.000000 260.000000"
 preserveAspectRatio="xMidYMid meet">
<metadata>
Created by potrace 1.11, written by Peter Selinger 2001-2013
</metadata>
<g transform="translate(0.000000,260.000000) scale(0.100000,-0.100000)"
fill="#000000" stroke="none">
<path d="M1150 2593 c-321 -49 -551 -162 -765 -378 -265 -265 -388 -572 -380
-945 2 -80 6 -158 10 -175 21 -101 28 -128 51 -200 61 -191 163 -356 318 -510
196 -195 395 -303 667 -361 117 -25 380 -25 499 0 306 65 527 197 755 451 127
141 243 401 279 626 14 82 14 330 2 394 -4 17 -11 53 -16 80 -29 143 -104 317
-195 456 -62 93 -248 280 -340 341 -137 91 -318 169 -460 198 -27 5 -63 12
-80 16 -35 7 -309 12 -345 7z"/>
</g>
</svg>
