<?xml version="1.0" encoding="utf-8"?>
<!-- Generator: Adobe Illustrator 15.0.0, SVG Export Plug-In . SVG Version: 6.00 Build 0)  -->
<!DOCTYPE svg PUBLIC "-//W3C//DTD SVG 1.1//EN" "http://www.w3.org/Graphics/SVG/1.1/DTD/svg11.dtd">
<svg version="1.1"  xmlns="http://www.w3.org/2000/svg" xmlns:xlink="http://www.w3.org/1999/xlink" x="0px" y="0px"
	 width="48px" height="48px" viewBox="0 0 48 48" enable-background="new 0 0 48 48" xml:space="preserve">
<g>
	<path fill="#EF5350" d="M16.924,21.593l-0.386-7.861l7.507,2.794v7.263L16.924,21.593z"/>
	<polygon fill="#EF5350" points="28.352,29.57 28.352,36.82 35.525,38.895 35.525,31.87 	"/>
</g>
<g>
	<g>
		<path fill="#EF9A9A" d="M24.045,35.975l-4.409-6.404l4.409-5.782l4.307,5.782L24.045,35.975z"/>
	</g>
	<polygon fill="#EF9A9A" points="19.636,10.712 23.994,5 28.352,10.966 24.045,16.525 	"/>
	<polygon fill="#EF9A9A" points="31.256,21.593 35.658,15.833 42.6,17.991 38.418,23.788 	"/>
</g>
<g>
	<g>
		<path fill="#D32F2F" d="M24.045,23.788l7.211-2.195l4.936,5.993l-7.84,1.984L24.045,23.788z"/>
	</g>
	<polygon fill="#D32F2F" points="16.924,21.593 12.387,15.663 5.179,18.032 9.494,23.788 	"/>
	<polygon fill="#D32F2F" points="24.045,16.525 31.449,13.632 35.525,8.343 28.352,10.966 	"/>
</g>
<g>
	<g>
		<path fill="#B71C1C" d="M24.045,23.788v-7.263l7.404-2.894l-0.193,7.961L24.045,23.788z"/>
	</g>
	<polygon fill="#B71C1C" points="19.636,29.57 19.636,36.863 12.387,38.895 12.387,31.912 	"/>
	<polygon fill="#B71C1C" points="9.494,23.788 16.924,21.593 11.774,27.211 5,29.57 	"/>
</g>
<g>
	<polygon fill="#660E0E" points="16.924,21.593 12.387,15.663 12.208,8.343 16.538,13.731 	"/>
	<polygon fill="#660E0E" points="19.636,29.57 19.636,36.863 24.045,43 24.045,35.975 	"/>
	<polygon fill="#660E0E" points="28.352,29.57 36.191,27.586 43,29.57 35.525,31.87 	"/>
</g>
<g>
	<polygon fill="#F44336" points="31.256,21.593 35.658,15.833 35.525,8.343 31.449,13.632 	"/>
	<polygon fill="#F44336" points="16.538,13.731 24.045,16.525 19.636,10.712 12.208,8.343 	"/>
	<polygon fill="#F44336" points="28.352,29.57 28.352,36.82 24.045,43 24.045,35.975 	"/>
	<polygon fill="#F44336" points="31.256,21.593 36.191,27.586 43,29.57 38.418,23.788 	"/>
</g>
<polygon fill="#8C1313" points="12.387,31.912 19.636,29.57 11.774,27.211 5,29.57 "/>
<path fill="#FFCDD2" d="M24.045,23.788l-4.409,5.782l-7.861-2.359l5.15-5.618L24.045,23.788z"/>
</svg>
