<svg xmlns="http://www.w3.org/2000/svg" xmlns:xlink="http://www.w3.org/1999/xlink" width="150" height="150" viewBox="0 0 150 150">
  <defs>
    <path id="logo-b" d="M29.9426339,-2.15118443e-14 L80.5935899,-2.15118443e-14 C83.3550136,-2.2907288e-14 85.5935899,2.23857625 85.5935899,5 L85.5935899,16.3658097 C85.5935899,19.1272334 83.3550136,21.3658097 80.5935899,21.3658097 L29.9426339,21.3658097 L29.9426339,21.3658097 L29.9426339,-2.15118443e-14 Z"/>
    <filter id="logo-a" width="130.5%" height="184.2%" x="-15.3%" y="-21.1%" filterUnits="objectBoundingBox">
      <feOffset dy="5" in="SourceAlpha" result="shadowOffsetOuter1"/>
      <feGaussianBlur in="shadowOffsetOuter1" result="shadowBlurOuter1" stdDeviation="2"/>
      <feColorMatrix in="shadowBlurOuter1" values="0 0 0 0 0   0 0 0 0 0   0 0 0 0 0  0 0 0 0.24 0"/>
    </filter>
    <path id="logo-d" d="M21.5608936,34.717541 L72.2118496,34.717541 C74.9732733,34.717541 77.2118496,36.9561173 77.2118496,39.717541 L77.2118496,47.4790089 C77.2118496,50.2404326 74.9732733,52.4790089 72.2118496,52.4790089 L21.5608936,52.4790089 L21.5608936,52.4790089 L21.5608936,34.717541 Z"/>
    <filter id="logo-c" width="130.5%" height="201.3%" x="-15.3%" y="-25.3%" filterUnits="objectBoundingBox">
      <feOffset dy="5" in="SourceAlpha" result="shadowOffsetOuter1"/>
      <feGaussianBlur in="shadowOffsetOuter1" result="shadowBlurOuter1" stdDeviation="2"/>
      <feColorMatrix in="shadowBlurOuter1" values="0 0 0 0 0   0 0 0 0 0   0 0 0 0 0  0 0 0 0.24 0"/>
    </filter>
    <path id="logo-f" d="M23.519154,87.5982749 C10.5298839,87.5982749 -1.72094754e-14,76.8205115 -1.72094754e-14,63.5254666 C-1.72094754e-14,52.0000379 7.91330919,42.3663706 18.4821507,40.0060125 C12.9103693,36.0143937 9.27515932,29.4522855 9.27515932,22.0339219 C9.27515932,9.98661285 18.8623942,0.197528865 30.762328,0.00295191601 L31.1236325,-1.72094754e-14 L57.7681119,-1.72094754e-14 L57.7681119,82.248762 C57.7681119,85.2032164 55.3951803,87.5982749 52.4680209,87.5982749 L23.519154,87.5982749 Z"/>
    <filter id="logo-e" width="129.4%" height="120.5%" x="-14.7%" y="-5.1%" filterUnits="objectBoundingBox">
      <feOffset dy="5" in="SourceAlpha" result="shadowOffsetOuter1"/>
      <feGaussianBlur in="shadowOffsetOuter1" result="shadowBlurOuter1" stdDeviation="2"/>
      <feColorMatrix in="shadowBlurOuter1" values="0 0 0 0 0   0 0 0 0 0   0 0 0 0 0  0 0 0 0.24 0"/>
    </filter>
  </defs>
  <g fill="none" fill-rule="evenodd">
    <path fill="#000E22" d="M75,0 C116.421356,-7.6089797e-15 150,33.5786438 150,75 C150,116.421356 116.421356,150 75,150 C33.5786438,150 5.07265313e-15,116.421356 0,75 C-5.07265313e-15,33.5786438 33.5786438,7.6089797e-15 75,0 Z"/>
    <g fill-rule="nonzero" transform="translate(32.048 31)">
      <use fill="#000" filter="url(#logo-a)" xlink:href="#logo-b"/>
      <use fill="#FBFBFB" xlink:href="#logo-b"/>
      <use fill="#000" filter="url(#logo-c)" xlink:href="#logo-d"/>
      <use fill="#FBFBFB" xlink:href="#logo-d"/>
      <use fill="#000" filter="url(#logo-e)" xlink:href="#logo-f"/>
      <use fill="#FBFBFB" xlink:href="#logo-f"/>
    </g>
  </g>
</svg>
